HIERARCHY
ROOT joint_Root
{
	OFFSET 0.0 0.0 0.0
	CHANNELS 6 Xposition Yposition Zposition Zrotation Xrotation Yrotation 
	JOINT Hips
	{
		OFFSET -0.726466 93.3139 -2.00062
		CHANNELS 6 Xposition Yposition Zposition Zrotation Xrotation Yrotation 
		JOINT Spine
		{
			OFFSET 15.7357 0.0 0.0
			CHANNELS 6 Xposition Yposition Zposition Zrotation Xrotation Yrotation 
			JOINT Chest
			{
				OFFSET 8.98455 -0.406207 0.0
				CHANNELS 6 Xposition Yposition Zposition Zrotation Xrotation Yrotation 
				JOINT Neck
				{
					OFFSET 16.3773 0.0 0.0
					CHANNELS 6 Xposition Yposition Zposition Zrotation Xrotation Yrotation 
					JOINT Head
					{
						OFFSET 6.45672 0.0 0.0
						CHANNELS 6 Xposition Yposition Zposition Zrotation Xrotation Yrotation 
						End Site
						{
							OFFSET 0.0 0.0 0.0
						}
					}
				}
				JOINT Shoulder_L
				{
					OFFSET 12.9942 -0.242716 4.98039
					CHANNELS 6 Xposition Yposition Zposition Zrotation Xrotation Yrotation 
					JOINT UpperArm_L
					{
						OFFSET 5.34809 0.0 0.0
						CHANNELS 6 Xposition Yposition Zposition Zrotation Xrotation Yrotation 
						JOINT LowerArm_L
						{
							OFFSET 24.3286 1.87007e-05 0.0
							CHANNELS 6 Xposition Yposition Zposition Zrotation Xrotation Yrotation 
							JOINT Hand_L
							{
								OFFSET 22.2916 0.0 0.0
								CHANNELS 6 Xposition Yposition Zposition Zrotation Xrotation Yrotation 
								End Site
								{
									OFFSET 0.0 0.0 0.0
								}
							}
						}
					}
				}
				JOINT Shoulder_R
				{
					OFFSET 12.9945 -0.242716 -4.98039
					CHANNELS 6 Xposition Yposition Zposition Zrotation Xrotation Yrotation 
					JOINT UpperArm_R
					{
						OFFSET -5.34813 0.0 0.0
						CHANNELS 6 Xposition Yposition Zposition Zrotation Xrotation Yrotation 
						JOINT LowerArm_R
						{
							OFFSET -24.3289 0.000322201 0.0
							CHANNELS 6 Xposition Yposition Zposition Zrotation Xrotation Yrotation 
							JOINT Hand_R
							{
								OFFSET -22.2915 -0.000108084 0.0
								CHANNELS 6 Xposition Yposition Zposition Zrotation Xrotation Yrotation 
								End Site
								{
									OFFSET 0.0 0.0 0.0
								}
							}
						}
					}
				}
			}
		}
		JOINT UpperLeg_L
		{
			OFFSET -2.19248 -6.46944 0.0
			CHANNELS 6 Xposition Yposition Zposition Zrotation Xrotation Yrotation 
			JOINT LowerLeg_L
			{
				OFFSET 39.0811 0.0 -1.23785e-05
				CHANNELS 6 Xposition Yposition Zposition Zrotation Xrotation Yrotation 
				JOINT Foot_L
				{
					OFFSET 40.9854 0.0 -1.26872e-05
					CHANNELS 6 Xposition Yposition Zposition Zrotation Xrotation Yrotation 
					JOINT Toes_L
					{
						OFFSET 11.7543 0.0 0.0
						CHANNELS 6 Xposition Yposition Zposition Zrotation Xrotation Yrotation 
						End Site
						{
							OFFSET 0.0 0.0 0.0
						}
					}
				}
			}
		}
		JOINT UpperLeg_R
		{
			OFFSET -2.19251 6.46944 0.0
			CHANNELS 6 Xposition Yposition Zposition Zrotation Xrotation Yrotation 
			JOINT LowerLeg_R
			{
				OFFSET -39.0811 -0.00228153 -0.0401928
				CHANNELS 6 Xposition Yposition Zposition Zrotation Xrotation Yrotation 
				JOINT Foot_R
				{
					OFFSET -40.9854 0.0 0.0
					CHANNELS 6 Xposition Yposition Zposition Zrotation Xrotation Yrotation 
					JOINT Toes_R
					{
						OFFSET -11.7543 0.0 0.0
						CHANNELS 6 Xposition Yposition Zposition Zrotation Xrotation Yrotation 
						End Site
						{
							OFFSET 0.0 0.0 0.0
						}
					}
				}
			}
		}
	}
}
MOTION
Frames:	4
Frame Time:	0.0333333
0.000000 0.000000 0.000000 0.000000 0.000000 -0.000000 -0.677281 92.438400 -2.704070 87.993200 -0.181877 4.780020 15.735700 0.000005 -0.000001 97.269700 85.434800 -97.698600 8.984550 -0.406207 -0.000000 1.295920 1.179040 -0.870553 16.377300 -0.000001 -0.000001 4.001360 -3.066770 0.550212 6.456720 -0.000001 -0.000000 1.570150 -3.269610 -6.970040 12.994200 -0.242716 4.980390 -89.897500 -0.321766 -72.332400 5.348090 -0.000007 -0.000001 -67.343100 38.065400 -13.282700 24.328600 0.000019 0.000005 1.028640 2.607810 -21.534600 22.291600 -0.000001 0.000005 3.556110 5.451820 -4.704740 12.994500 -0.242716 -4.980390 89.705900 0.828201 -70.446500 -5.348130 -0.000001 -0.000004 -76.184000 -29.309400 -88.304900 -24.328900 0.000322 -0.000009 25.383500 1.997840 -85.798600 -22.291500 -0.000108 -0.000004 40.060900 5.012470 7.052200 -2.192480 -6.469440 -0.000000 -175.596000 -5.738280 -3.561370 39.081100 -0.000007 -0.000012 -0.094455 0.222231 23.027100 40.985400 -0.000006 -0.000013 -0.154763 3.380170 -64.947900 11.754300 -0.000000 0.000003 -0.000027 -0.000325 -16.590200 -2.192510 6.469440 -0.000001 179.868000 13.225900 178.847000 -39.081100 -0.002282 -0.040193 -0.035465 0.108103 19.738000 -40.985400 0.000008 0.000006 3.032290 6.933870 -64.266700 -11.754300 -0.000006 -0.000006 -0.007897 -0.087190 -20.123400
0.000000 0.000000 0.000000 0.000000 0.000000 -0.000000 -0.668371 92.432400 -2.665340 88.033700 -0.233971 4.810160 15.735700 0.000005 -0.000001 96.687800 85.441200 -97.097100 8.984550 -0.406207 -0.000000 1.293720 1.084430 -0.830197 16.377300 -0.000001 -0.000001 4.026550 -3.135720 0.592314 6.456720 -0.000001 -0.000000 1.611360 -3.271480 -6.999790 12.994200 -0.242716 4.980390 -89.896000 -0.326793 -72.352600 5.348090 -0.000007 -0.000001 -67.595600 38.187600 -12.955200 24.328600 0.000019 0.000005 1.074810 2.746320 -21.382700 22.291600 -0.000001 0.000005 3.562580 5.448430 -4.583610 12.994500 -0.242716 -4.980390 89.606000 1.101290 -70.313800 -5.348130 -0.000001 -0.000004 -65.492200 -30.589100 -83.676600 -24.328900 0.000322 -0.000009 25.943000 1.002240 -87.941100 -22.291500 -0.000108 -0.000004 39.156100 5.047080 6.300040 -2.192480 -6.469440 -0.000000 -175.640000 -5.727850 -3.484630 39.081100 -0.000007 -0.000012 -0.096126 0.226276 23.016600 40.985400 -0.000006 -0.000013 -0.158385 3.330620 -64.981900 11.754300 -0.000000 0.000003 -0.000028 -0.000335 -16.590600 -2.192510 6.469440 -0.000001 179.805000 13.182600 178.879000 -39.081100 -0.002282 -0.040193 -0.037236 0.112643 19.801700 -40.985400 0.000008 0.000006 3.025980 6.923440 -64.327800 -11.754300 -0.000006 -0.000006 -0.008144 -0.089204 -20.205700
0.000000 0.000000 0.000000 0.000000 0.000000 -0.000000 -0.679339 92.423000 -2.624960 88.004400 -0.344785 4.817400 15.735700 0.000005 -0.000001 96.276600 85.455100 -96.650500 8.984550 -0.406207 -0.000000 1.272920 1.014490 -0.758552 16.377300 -0.000001 -0.000001 4.116810 -3.232840 0.668661 6.456720 -0.000001 -0.000000 1.626780 -3.306820 -7.045720 12.994200 -0.242716 4.980390 -89.911500 -0.278000 -72.335300 5.348090 -0.000007 -0.000001 -67.710100 38.273600 -12.776000 24.328600 0.000019 0.000005 1.158340 3.004680 -21.093100 22.291600 -0.000001 0.000005 3.614570 5.448010 -4.568640 12.994500 -0.242716 -4.980390 89.527700 1.315400 -70.246600 -5.348130 -0.000001 -0.000004 -53.288400 -31.189100 -78.264300 -24.328900 0.000322 -0.000009 27.729900 -0.225609 -90.429400 -22.291500 -0.000108 -0.000004 37.770000 5.075840 5.659210 -2.192480 -6.469440 -0.000000 -175.596000 -5.785870 -3.464430 39.081100 -0.000007 -0.000012 -0.096536 0.226520 23.082400 40.985400 -0.000006 -0.000013 -0.181732 3.256750 -65.051200 11.754300 -0.000000 0.000003 -0.000028 -0.000340 -16.590900 -2.192510 6.469440 -0.000001 179.837000 13.122400 178.887000 -39.081100 -0.002282 -0.040193 -0.037628 0.113518 19.836000 -40.985400 0.000008 0.000006 3.029630 6.974360 -64.362300 -11.754300 -0.000006 -0.000006 -0.007910 -0.087295 -20.127700
0.000000 0.000000 0.000000 0.000000 0.000000 -0.000000 -0.697130 92.416700 -2.565400 88.032200 -0.472810 4.912350 15.735700 0.000005 -0.000001 96.075900 85.439500 -96.440600 8.984550 -0.406207 -0.000000 1.307140 0.985511 -0.740077 16.377300 -0.000001 -0.000001 4.199270 -3.295860 0.750724 6.456720 -0.000001 -0.000000 1.688230 -3.443660 -7.086680 12.994200 -0.242716 4.980390 -89.918600 -0.255526 -72.336700 5.348090 -0.000007 -0.000001 -67.923200 38.145400 -12.608900 24.328600 0.000019 0.000005 1.121500 2.956080 -20.786200 22.291600 -0.000001 0.000005 3.580730 5.445500 -4.479460 12.994500 -0.242716 -4.980390 89.458900 1.503970 -70.210000 -5.348130 -0.000001 -0.000004 -40.820200 -30.806400 -72.844800 -24.328900 0.000322 -0.000009 29.098300 -1.759740 -93.157900 -22.291500 -0.000108 -0.000004 36.041200 5.106470 4.962210 -2.192480 -6.469440 -0.000000 -175.592000 -5.799780 -3.291300 39.081100 -0.000007 -0.000012 -0.098243 0.230748 23.062300 40.985400 -0.000006 -0.000013 -0.221707 3.167860 -65.099300 11.754300 -0.000000 0.000003 -0.000024 -0.000302 -16.589400 -2.192510 6.469440 -0.000001 179.790000 13.070200 179.000000 -39.081100 -0.002282 -0.040193 -0.038757 0.116377 19.878700 -40.985400 0.000008 0.000006 3.024710 7.032070 -64.418700 -11.754300 -0.000006 -0.000006 -0.008012 -0.088134 -20.162000
